:FULLY-SPECIFIED
:DEGREES
794
root 3.33946 16.5028 -2.93348 112.333 -92.1661 -106.723
lowerback 0.373693 1.2117 -1.32758
upperback 0.642617 1.61272 -0.188246
thorax 0.416993 0.799779 0.550439
lowerneck -18.2641 -1.03958 -0.721268
upperneck 17.867 -1.68593 1.82495
head 8.60897 -0.670592 0.519776
rclavicle -1.19271e-014 7.95139e-016
rhumerus -31.0235 -1.65443 -83.2798
rradius 22.0622
rwrist 29.605
rhand -23.5732 1.97333
rfingers 7.12502
rthumb 2.88952 -27.9868
lclavicle -1.19271e-014 7.95139e-016
lhumerus -30.7739 8.63388 86.7079
lradius 17.2455
lwrist -20.3495
lhand -24.3897 1.73968
lfingers 7.12502
lthumb 2.10098 31.7091
rfemur -1.53995 -0.0277441 23.027
rtibia 40.1682
rfoot -7.91603 -4.18855
rtoes -25.0574
lfemur -22.3514 -10.3239 -25.3013
ltibia 24.3959
lfoot -6.87452 3.66455
ltoes -1.20831
795
root 3.34268 16.5158 -2.91597 106.806 -92.6161 -101.125
lowerback 0.391048 1.15633 -1.83019
upperback 0.634164 1.53759 -0.275607
thorax 0.389412 0.760152 0.741789
lowerneck -18.3175 -0.952516 -0.698776
upperneck 17.864 -1.55028 1.72854
head 8.6144 -0.614937 0.500497
rclavicle -7.15625e-015 -6.75868e-015
rhumerus -31.0351 -1.54263 -83.159
rradius 22.1402
rwrist 29.8381
rhand -23.6159 1.97456
rfingers 7.12502
rthumb 2.84827 -27.9862
lclavicle -7.15625e-015 -6.75868e-015
lhumerus -30.7096 8.47117 86.8582
lradius 17.4015
lwrist -20.163
lhand -24.2843 1.7708
lfingers 7.12502
lthumb 2.2028 31.7392
rfemur -3.39976 -0.687676 22.0148
rtibia 43.4295
rfoot -5.86259 -3.15852
rtoes -22.8027
lfemur -21.552 -10.3208 -25.9747
ltibia 23.5422
lfoot -6.83719 3.76996
ltoes -1.44834
796
root 3.34689 16.5316 -2.89901 102.476 -92.9684 -96.8007
lowerback 0.545218 1.08796 -2.25767
upperback 0.608905 1.44071 -0.302575
thorax 0.270049 0.711099 0.949938
lowerneck -18.2845 -0.825349 -0.663577
upperneck 17.8105 -1.35209 1.58459
head 8.58622 -0.534845 0.471189
rclavicle -6.36111e-015 4.17448e-015
rhumerus -31.091 -1.21788 -83.1198
rradius 22.3027
rwrist 29.481
rhand -23.6386 2.03249
rfingers 7.12502
rthumb 2.82638 -27.9285
lclavicle -6.36111e-015 4.17448e-015
lhumerus -30.7021 8.03612 87.1359
lradius 17.5928
lwrist -19.6626
lhand -24.2988 1.77795
lfingers 7.12502
lthumb 2.18876 31.7465
rfemur -5.20321 -1.27461 21.1955
rtibia 46.6489
rfoot -3.76078 -2.24872
rtoes -21.899
lfemur -20.6218 -10.1989 -26.5459
ltibia 22.5707
lfoot -6.80861 3.81405
ltoes -1.47037
797
root 3.34979 16.5461 -2.88192 97.7951 -93.3393 -92.2238
lowerback 0.703446 1.06694 -2.6091
upperback 0.671743 1.40629 -0.387151
thorax 0.240719 0.691925 1.05764
lowerneck -18.281 -0.730094 -0.605924
upperneck 17.6963 -1.20553 1.45732
head 8.54368 -0.475216 0.437213
rclavicle 1.66979e-014 -3.97569e-015
rhumerus -31.0605 -1.02739 -83.1272
rradius 22.4813
rwrist 29.0335
rhand -23.8307 2.03704
rfingers 7.12502
rthumb 2.64082 -27.9264
lclavicle 1.66979e-014 -3.97569e-015
lhumerus -30.6099 7.62437 87.3315
lradius 17.8655
lwrist -19.1715
lhand -24.1803 1.72352
lfingers 7.12502
lthumb 2.3032 31.6908
rfemur -6.88017 -1.75158 20.3587
rtibia 49.7562
rfoot -1.7133 -1.402
rtoes -19.7519
lfemur -19.5289 -10.0075 -27.1457
ltibia 21.5261
lfoot -6.71648 3.82048
ltoes -1.44268
798
root 3.35482 16.559 -2.86501 93.6079 -93.8479 -88.2299
lowerback 0.940084 1.06103 -3.05335
upperback 0.778115 1.38716 -0.514413
thorax 0.210697 0.679143 1.17241
lowerneck -18.2686 -0.645572 -0.528091
upperneck 17.5312 -1.0736 1.30847
head 8.48256 -0.423248 0.39081
rclavicle -1.51076e-014 5.96354e-015
rhumerus -30.9955 -0.938209 -83.1081
rradius 22.6154
rwrist 29.0904
rhand -24.2035 1.96005
rfingers 7.12502
rthumb 2.28078 -28.0075
lclavicle -1.51076e-014 5.96354e-015
lhumerus -30.4285 7.20217 87.5134
lradius 17.9717
lwrist -18.8786
lhand -24.2695 1.77421
lfingers 7.12502
lthumb 2.21708 31.7424
rfemur -8.47809 -2.2625 19.4071
rtibia 52.709
rfoot -0.267698 -0.824295
rtoes -18.5493
lfemur -18.3503 -9.79968 -27.8938
ltibia 20.489
lfoot -6.6286 3.85316
ltoes -1.6026
799
root 3.36381 16.5699 -2.84605 90.8955 -94.242 -85.7459
lowerback 1.22413 1.02613 -3.30103
upperback 0.899503 1.32733 -0.614673
thorax 0.175446 0.646487 1.2047
lowerneck -18.2196 -0.545312 -0.510789
upperneck 17.339 -0.914683 1.21176
head 8.40654 -0.357178 0.375326
rclavicle -1.19271e-014 -3.57812e-015
rhumerus -30.8597 -0.991014 -83.0754
rradius 22.6946
rwrist 28.9151
rhand -24.6321 1.99673
rfingers 7.12502
rthumb 1.86685 -27.9748
lclavicle -1.19271e-014 -3.57812e-015
lhumerus -30.2099 6.75722 87.6891
lradius 18.0967
lwrist -18.4392
lhand -24.4137 1.69223
lfingers 7.12502
lthumb 2.07786 31.6619
rfemur -10.0005 -2.76157 18.6254
rtibia 55.4549
rfoot 0.11171 -1.17883
rtoes -18.7228
lfemur -17.1961 -9.60209 -28.5087
ltibia 19.526
lfoot -6.57744 3.86823
ltoes -1.41072
800
root 3.37853 16.5754 -2.83212 89.4511 -94.4815 -84.625
lowerback 1.6601 0.975402 -3.42387
upperback 1.02716 1.24006 -0.652725
thorax 0.064367 0.60155 1.22902
lowerneck -18.1081 -0.449203 -0.507139
upperneck 17.1185 -0.755369 1.10076
head 8.31038 -0.29347 0.357232
rclavicle -1.51076e-014 7.55382e-015
rhumerus -30.7285 -1.31961 -82.9288
rradius 22.7626
rwrist 29.0985
rhand -25.0249 2.14085
rfingers 7.12502
rthumb 1.48756 -27.8337
lclavicle -1.51076e-014 7.55382e-015
lhumerus -29.9777 6.39475 87.8193
lradius 18.1481
lwrist -18.2688
lhand -24.5057 1.78276
lfingers 7.12502
lthumb 1.98893 31.7532
rfemur -11.3182 -3.26087 18.1166
rtibia 57.9613
rfoot -0.147134 -2.04983
rtoes -18.9538
lfemur -16.0063 -9.33326 -28.9538
ltibia 18.6446
lfoot -6.49057 3.73188
ltoes -1.64064
